<svg xmlns="http://www.w3.org/2000/svg" viewBox="0 0 227 153.34"><defs><style>.cls-1,.cls-2{fill:#aaa;}.cls-1{opacity:0.5;}.cls-2{opacity:0.12;}.cls-3{fill:#9fe791;}.cls-4{fill:#2bc3f7;}.cls-5{opacity:0.15;}.cls-6{fill:#32caf8;}.cls-7{fill:#fff;}.cls-11,.cls-8{fill:none;stroke-miterlimit:10;}.cls-8{stroke:#fff;stroke-width:3px;}.cls-9{fill:#e6f4ff;}.cls-10{fill:#b3c9e8;}.cls-11{stroke:#2e576d;stroke-linecap:round;stroke-width:4px;}</style></defs><title>Asset 80</title><g id="Layer_2" data-name="Layer 2"><g id="Layer_1-2" data-name="Layer 1"><rect class="cls-1" x="55.13" y="2.63" width="112.96" height="159.48" rx="20.88" ry="20.88" transform="translate(2.33 167.81) rotate(-74.45)"/><rect class="cls-2" x="40.77" y="30.17" width="186.23" height="69.3" rx="34.65" ry="34.65"/><circle class="cls-3" cx="16.08" cy="127.1" r="3.49"/><rect class="cls-2" y="66.37" width="180.67" height="69.3" rx="34.65" ry="34.65"/><circle class="cls-4" cx="17.54" cy="30.76" r="3.49"/><g class="cls-5"><path class="cls-6" d="M214.52,130.77l-6.63,5.49a3,3,0,0,0,0,4.24,3.07,3.07,0,0,0,4.24,0l6.63-5.49a3,3,0,0,0,0-4.24,3.07,3.07,0,0,0-4.24,0Z"/><path class="cls-6" d="M218.2,136.83l-5.49-6.63a3,3,0,0,0-4.24,0,3.07,3.07,0,0,0,0,4.24l5.49,6.63a3,3,0,0,0,4.24,0,3.07,3.07,0,0,0,0-4.24Z"/></g><path class="cls-7" d="M186.43,38.66l.09,5.73a.63.63,0,0,0,1.25,0l-.09-5.73a.63.63,0,0,0-1.25,0Z"/><path class="cls-7" d="M182.44,28.6h4.7l-.62-.62v4.27a.63.63,0,0,0,1.25,0V28a.63.63,0,0,0-.62-.62h-4.7a.63.63,0,0,0,0,1.25Z"/><path class="cls-8" d="M111.4,102.1"/><rect class="cls-9" x="50.13" y="-6.37" width="112.96" height="159.48" rx="20.88" ry="20.88" transform="translate(7.34 156.4) rotate(-74.45)"/><path class="cls-10" d="M20.78,98.21l-1.24-2.73L80,68l.54,1.55c.07.21,7.35,20.68,21.91,24.19,8.18,2,17.27-1.76,27-11.08l2.07,2.17C121,94.9,111,98.88,101.74,96.65,87.9,93.31,80.37,77.19,78.29,72.07Z"/><rect class="cls-10" x="148.81" y="78.49" width="3" height="62.88" transform="translate(-35.9 111.74) rotate(-36.74)"/><path class="cls-8" d="M101.77,99.34"/><path class="cls-7" d="M176.72,34.93,66.83,4.34c-10.77-3-19.42-.45-22.31,4.7l-1.63,4.09c1.56-5.59,11.62-6.19,22.39-3.2L175.16,40.52c10.77,3,18.23,10,16.68,15.55l1.56-5.6C195,44.89,187.49,37.92,176.72,34.93Z"/><rect class="cls-11" x="50.24" y="-6.77" width="112.96" height="159.48" rx="20.88" ry="20.88" transform="translate(7.81 156.22) rotate(-74.45)"/><line class="cls-11" x1="20.72" y1="94.11" x2="79.32" y2="67.23"/><line class="cls-11" x1="132.88" y1="82.53" x2="170.66" y2="134.67"/><path class="cls-11" d="M42.88,11.91,90,83.48a19.16,19.16,0,0,0,25.55,7.11l78.09-37.28"/></g></g></svg>