<svg xmlns="http://www.w3.org/2000/svg" enable-background="new 0 0 24 24" viewBox="0 0 24 24"><polygon points="2.436 17.992 2.432 17.986 2.425 17.977"/><path fill="#1266A9" d="M1.406,16.346l0.077,0.149l0.047,0.082l0.081,0.152l0.157,0.264l0.09,0.145c0.056,0.093,0.12,0.186,0.178,0.28l0.079,0.117c0.109,0.171,0.21,0.313,0.316,0.451c0.076,0.103,0.152,0.205,0.234,0.305l0.085,0.114l0.221,0.268l0.083,0.099c0.098,0.117,0.203,0.232,0.307,0.348l0.005,0.007c0.129,0.163,0.268,0.306,0.421,0.435l0.004,0.004l0.245,0.243l0.101,0.097c0.111,0.103,0.222,0.207,0.339,0.307l0.005,0.003l0.058,0.05c0.101,0.089,0.205,0.177,0.311,0.259l0.125,0.105l0.26,0.199l0.137,0.103c0.093,0.07,0.192,0.139,0.287,0.206l0.106,0.073l0.028,0.023l0.282,0.184l0.12,0.08c0.147,0.094,0.293,0.182,0.438,0.27l0.123,0.068c0.108,0.062,0.22,0.124,0.329,0.182l0.185,0.093l0.233,0.125l0.057,0.024L7.56,22.257l0.096,0.047c0.121,0.06,0.246,0.117,0.376,0.174l0.076,0.034c0.143,0.063,0.288,0.123,0.437,0.181l0.105,0.04c0.135,0.051,0.275,0.103,0.411,0.151l0.05,0.018c0.153,0.051,0.305,0.101,0.46,0.149l0.111,0.032c0.159,0.048,0.313,0.105,0.474,0.135c10.272,1.863,13.258-6.145,13.258-6.145c-2.508,3.249-6.958,4.106-11.174,3.153c-0.156-0.036-0.313-0.086-0.47-0.132c-0.286-0.083-0.475-0.144-0.662-0.209l0.095,0.029l-0.063-0.024c-0.136-0.046-0.267-0.097-0.4-0.148l-0.098-0.037l-0.011-0.003c-0.147-0.059-0.291-0.119-0.433-0.182l-0.089-0.036c-0.262-0.115-0.381-0.172-0.499-0.23l0.137,0.061l-0.105-0.052c-0.095-0.044-0.188-0.094-0.28-0.142l-0.208-0.106l0.02,0.01c-0.113-0.059-0.227-0.124-0.34-0.187l-0.113-0.065c-0.215-0.127-0.359-0.216-0.501-0.306l0.062,0.038L8.16,18.424l0.006,0.004c-0.123-0.076-0.221-0.141-0.316-0.208l-0.099-0.07c-0.128-0.088-0.225-0.158-0.318-0.228l0.023,0.017l-0.132-0.1l-0.266-0.207L6.94,17.538c-0.126-0.102-0.233-0.192-0.337-0.282L6.57,17.229l-0.001-0.001l-0.348-0.314l-0.1-0.094l-0.251-0.244l-0.097-0.1c-0.104-0.103-0.204-0.207-0.304-0.315l-0.006-0.007L5.45,16.138c-0.107-0.115-0.209-0.233-0.314-0.353l-0.08-0.097L4.83,15.412c-0.079-0.098-0.191-0.243-0.3-0.39l-0.04-0.056C2.152,11.79,1.306,7.407,3.178,3.812L1.525,5.901c-2.125,3.038-1.862,6.99-0.237,10.217L1.406,16.346L1.406,16.346z"/><polygon points="8.563 11.968 8.553 11.952 8.544 11.94 8.563 11.968"/><path fill="#1266A9" d="M9.682,13.28l0.09,0.089c0.114,0.11,0.231,0.217,0.351,0.324l0.015,0.013c0.12,0.106,0.256,0.217,0.394,0.325l0.021,0.016l0.096,0.073c0.14,0.108,0.281,0.211,0.428,0.314l0.015,0.009l0.198,0.13l0.09,0.059c0.106,0.068,0.211,0.131,0.317,0.196l0.049,0.023c0.09,0.055,0.188,0.108,0.282,0.157l0.099,0.054l0.197,0.101l0.032,0.014c0.135,0.066,0.273,0.128,0.408,0.189l0.093,0.038c0.11,0.048,0.224,0.094,0.335,0.137l0.145,0.052c0.101,0.038,0.209,0.073,0.311,0.107l0.14,0.045c0.147,0.045,0.295,0.104,0.449,0.128C22.164,17.181,24,11.104,24,11.104c-1.653,2.366-4.851,3.495-8.261,2.615c-0.207-0.054-0.357-0.097-0.505-0.146l0.057,0.016l-0.136-0.042c-0.104-0.036-0.212-0.071-0.312-0.108l-0.145-0.054c-0.112-0.045-0.225-0.087-0.335-0.135l-0.09-0.039c-0.141-0.063-0.282-0.125-0.418-0.191l-0.206-0.107l-0.119-0.06c-0.093-0.047-0.178-0.098-0.265-0.149l-0.066-0.036l0.004,0.001c-0.107-0.066-0.217-0.13-0.318-0.197l-0.097-0.062l-0.208-0.135c-0.145-0.1-0.285-0.207-0.427-0.311l-0.094-0.079c-1.499-1.172-2.682-2.775-3.242-4.59C8.224,5.406,8.353,3.29,9.374,1.573L8.12,3.341c-1.541,2.201-1.454,5.143-0.254,7.471c0.219,0.429,0.441,0.793,0.687,1.14c0.228,0.326,0.48,0.709,0.784,0.97C9.444,13.044,9.561,13.161,9.682,13.28L9.682,13.28z"/><polygon points="6.595 17.247 6.604 17.255 6.607 17.258 6.595 17.247"/><path fill="#1266A9" d="M13.666,1.427c-0.909,1.327-0.996,2.975-0.37,4.438c0.665,1.554,2.024,2.774,3.608,3.352l0.195,0.07l0.088,0.027c0.092,0.029,0.186,0.063,0.28,0.084c4.382,0.841,5.567-2.239,5.887-2.691c-1.044,1.49-2.793,1.848-4.938,1.329c-0.21-0.052-0.383-0.107-0.55-0.17l0.033,0.011c-0.253-0.089-0.457-0.174-0.655-0.27l0.037,0.017c-0.409-0.2-0.762-0.416-1.088-0.664C14.275,5.51,13.089,2.75,14.341,0.5L13.666,1.427L13.666,1.427z"/><path fill="#105993" d="M3.178,3.812L1.525,5.901c-2.125,3.038-1.862,6.99-0.237,10.217l0.118,0.229l0.077,0.149l0.047,0.082l0.081,0.152l0.157,0.264l0.09,0.145c0.056,0.093,0.12,0.186,0.178,0.28l0.079,0.117c0.109,0.171,0.21,0.313,0.316,0.451c0.076,0.103,0.152,0.205,0.234,0.305l0.085,0.114l0.221,0.268l0.083,0.099c0.098,0.117,0.203,0.232,0.307,0.348l0.005,0.007c0.129,0.163,0.268,0.306,0.421,0.435l0.004,0.004l0.245,0.243l0.101,0.097c0.111,0.103,0.222,0.207,0.339,0.307l0.005,0.003l0.058,0.05c0.031,0.027,0.063,0.055,0.095,0.082l2.377-2.752L6.94,17.538c-0.126-0.102-0.233-0.192-0.337-0.282L6.57,17.229l-0.001-0.001l-0.348-0.314l-0.1-0.094l-0.251-0.244l-0.097-0.1c-0.104-0.103-0.204-0.207-0.304-0.315l-0.006-0.007L5.45,16.138c-0.107-0.115-0.209-0.233-0.314-0.353l-0.08-0.097L4.83,15.412c-0.079-0.098-0.191-0.243-0.3-0.39l-0.04-0.056C2.152,11.79,1.306,7.407,3.178,3.812L3.178,3.812z"/><polygon points="8.544 11.94 8.563 11.968 8.553 11.952 8.544 11.94"/><path fill="#105993" d="M9.374,1.573L8.12,3.341c-1.541,2.201-1.454,5.143-0.254,7.471c0.219,0.429,0.441,0.793,0.687,1.14c0.228,0.326,0.48,0.709,0.784,0.97c0.108,0.122,0.224,0.239,0.345,0.358l0.09,0.089c0.114,0.11,0.231,0.217,0.351,0.324l0.015,0.013c0.043,0.038,0.088,0.076,0.134,0.115l1.719-1.99c-1.468-1.167-2.623-2.75-3.176-4.537C8.224,5.406,8.353,3.29,9.374,1.573L9.374,1.573z"/><polygon points="6.595 17.247 6.604 17.255 6.607 17.258 6.595 17.247"/><path fill="#105993" d="M14.341,0.5l-0.675,0.927c-0.909,1.327-0.996,2.975-0.37,4.438c0.394,0.922,1.033,1.726,1.818,2.349l1.082-1.252c-0.001-0.001-0.002-0.001-0.003-0.002C14.275,5.51,13.089,2.75,14.341,0.5L14.341,0.5z"/></svg>